<?xml version="1.0" encoding="iso-8859-1"?>
<!-- Generator: Adobe Illustrator 18.1.1, SVG Export Plug-In . SVG Version: 6.00 Build 0)  -->
<svg version="1.1" id="Capa_1" xmlns="http://www.w3.org/2000/svg" xmlns:xlink="http://www.w3.org/1999/xlink" x="0px" y="0px"
	 viewBox="0 0 25.642 25.642" style="enable-background:new 0 0 25.642 25.642;" xml:space="preserve">
<g>
	<path style="fill:#030104;" d="M17.027,14.253c-0.077,0.375-0.333,0.725-0.804,0.612c-1.695-0.401-4.351-0.521-5.924-0.14
		c-0.578,0.14-0.848-0.112-1.065-0.803c-0.541-1.716-1.395-3.786-1.211-6.438c0.411-5.941,2.864-7.586,4.712-7.479
		S19.332,3.048,17.027,14.253z M9.425,17.798c0,0-0.331,1.031-0.517,2.71c-0.308,2.777,0.289,4.704,3.001,5.094
		c2.288,0.33,3.757-1.39,4.063-4.167c0.185-1.678,0.201-2.749,0.201-2.749L9.425,17.798z"/>
</g>
<g>
</g>
<g>
</g>
<g>
</g>
<g>
</g>
<g>
</g>
<g>
</g>
<g>
</g>
<g>
</g>
<g>
</g>
<g>
</g>
<g>
</g>
<g>
</g>
<g>
</g>
<g>
</g>
<g>
</g>
</svg>
